# xmcd
#
# Track frame offsets:
#   150
#   14663
#   30245
#   44940
#   59580
#   73426
#   86967
#   98935
#   114227
#   127460
#   138816
#   151287
#   166631
#   184064
#   199431
#   224580
#   236170
#   247947
#   261668
#   275137
#
# Disc length: 3830 seconds
#
# Revision: 3
# Processed by: cddbd v1.5.1PL0 Copyright (c) Steve Scherf et al.
# Submitted via: Media_Universe 3.0
#
DISCID=440ef414
DTITLE=Sidney Bechet - Les plus grands succès de Sidney Bechet
DYEAR=1900
DGENRE=Jazz
TTITLE0=Petite fleur
TTITLE1=Dans les rues d'Antibes
TTITLE2=Promenade aux Champs-Élysées
TTITLE3=Si tu vois ma mère
TTITLE4=Roses de Picardie
TTITLE5=Bonjour Paris
TTITLE6=La complainte des infidèles
TTITLE7=Brave Margot
TTITLE8=Le loup, la biche et le chevalier
TTITLE9=As-tu l'cafard?
TTITLE10=Le marchand de poissons
TTITLE11=Premier bal
TTITLE12=Aubergines, poivrons et sauce tomate
TTITLE13=14 Juillet
TTITLE14=Boogie de Montmartre
TTITLE15=Lastic
TTITLE16=Coquin de boubou
TTITLE17=Moulin à café
TTITLE18=Mon homme
TTITLE19=Les oignons
EXTD=
EXTT0=
EXTT1=
EXTT2=
EXTT3=
EXTT4=
EXTT5=
EXTT6=
EXTT7=
EXTT8=
EXTT9=
EXTT10=
EXTT11=
EXTT12=
EXTT13=
EXTT14=
EXTT15=
EXTT16=
EXTT17=
EXTT18=
EXTT19=
PLAYORDER=
